<?xml version="1.0" standalone="no"?>
<!DOCTYPE svg PUBLIC "-//W3C//DTD SVG 20010904//EN"
 "http://www.w3.org/TR/2001/REC-SVG-20010904/DTD/svg10.dtd">
<svg version="1.0" xmlns="http://www.w3.org/2000/svg"
 width="512.000000pt" height="512.000000pt" viewBox="0 0 512.000000 512.000000"
 preserveAspectRatio="xMidYMid meet">

<g transform="translate(0.000000,512.000000) scale(0.100000,-0.100000)"
fill="#000000" stroke="none">
<path d="M749 3812 c-161 -84 -138 -336 35 -387 75 -22 3477 -22 3552 0 126
37 181 182 116 306 -22 43 -38 59 -81 81 l-53 28 -1758 0 -1758 0 -53 -28z"/>
<path d="M750 2748 c-26 -14 -57 -41 -75 -66 -27 -40 -30 -51 -30 -122 0 -71
3 -82 30 -122 18 -25 49 -52 75 -65 l44 -23 1766 0 1766 0 44 23 c26 13 57 40
75 65 27 40 30 51 30 122 0 71 -3 82 -30 122 -18 25 -49 52 -75 66 l-44 22
-1766 0 -1766 0 -44 -22z"/>
<path d="M781 1695 c-123 -39 -177 -184 -113 -306 22 -43 38 -59 81 -81 l53
-28 1758 0 1758 0 53 28 c161 84 138 336 -35 387 -72 22 -3487 21 -3555 0z"/>
</g>
</svg>
